# Blender v2.69 (sub 0) OBJ File: 'coin.blend'
# www.blender.org
o Cylinder
v -0.047460 0.000000 -1.000000
v 0.047460 0.000000 -1.000000
v -0.047460 -0.707107 -0.707107
v 0.047460 -0.707107 -0.707107
v -0.047460 -1.000000 -0.000000
v 0.047460 -1.000000 -0.000000
v -0.047460 -0.707107 0.707107
v 0.047460 -0.707107 0.707107
v -0.047460 -0.000000 1.000000
v 0.047460 -0.000000 1.000000
v -0.047460 0.707107 0.707107
v 0.047460 0.707107 0.707107
v -0.047460 1.000000 0.000000
v 0.047460 1.000000 0.000000
v -0.047460 0.707107 -0.707107
v 0.047460 0.707107 -0.707107
vt 0.370547 0.278912
vt 0.370547 0.354361
vt 0.341674 0.354361
vt 0.292384 0.278912
vt 0.292384 0.354361
vt 0.271968 0.278912
vt 0.271968 0.354361
vt 0.243094 0.278912
vt 0.243094 0.354361
vt 0.222678 0.278912
vt 0.298127 0.403651
vt 0.222678 0.403651
vt 0.298127 0.374778
vt 0.222678 0.374778
vt 0.298127 0.354361
vt 0.844666 0.155334
vt 0.987432 0.500000
vt 0.500000 0.012568
vt 0.312800 0.278912
vt 0.312801 0.354361
vt 0.341674 0.278912
vt 0.155334 0.844666
vt 0.844666 0.844666
vt 0.500000 0.987432
vt 0.222678 0.354361
vt 0.155334 0.155334
vt 0.012568 0.500000
vn 0.000000 -0.382683 -0.923880
vn -0.000003 -0.923880 -0.382683
vn -0.000003 -0.923880 0.382683
vn -0.000002 -0.382684 0.923880
vn 0.000002 0.382683 0.923880
vn 0.000003 0.923880 0.382683
vn 1.000000 0.000000 -0.000000
vn 0.000000 0.382684 -0.923879
vn 0.000004 0.923880 -0.382684
vn -1.000000 -0.000000 0.000000
vn -0.000002 -0.382683 -0.923880
vn -0.000003 -0.923879 -0.382684
vn -0.000002 -0.923879 0.382684
vn 0.000001 -0.382684 0.923880
vn 0.000001 0.382683 0.923880
vn 0.000004 0.923879 0.382684
vn 0.000001 0.382684 -0.923879
vn 0.000002 0.923880 -0.382683
s off
f 1/1/1 2/2/1 4/3/1
f 3/4/2 4/5/2 5/6/2
f 5/6/3 6/7/3 7/8/3
f 7/8/4 8/9/4 9/10/4
f 9/11/5 10/12/5 11/13/5
f 11/13/6 12/14/6 13/15/6
f 4/16/7 2/17/7 6/18/7
f 15/19/8 16/20/8 1/4/8
f 13/21/9 14/3/9 15/19/9
f 15/22/10 11/23/10 13/24/10
f 3/21/11 1/1/11 4/3/11
f 4/5/12 6/7/12 5/6/12
f 6/7/13 8/9/13 7/8/13
f 8/9/14 10/25/14 9/10/14
f 10/12/15 12/14/15 11/13/15
f 12/14/16 14/25/16 13/15/16
f 2/17/7 16/23/7 6/18/7
f 16/23/7 14/24/7 12/22/7
f 6/18/7 16/23/7 12/22/7
f 8/26/7 6/18/7 10/27/7
f 6/18/7 12/22/7 10/27/7
f 16/20/17 2/5/17 1/4/17
f 14/3/18 16/20/18 15/19/18
f 15/22/10 9/17/10 11/23/10
f 1/27/10 3/26/10 15/22/10
f 15/22/10 3/26/10 9/17/10
f 3/26/10 5/18/10 9/17/10
f 5/18/10 7/16/10 9/17/10
